<svg width="22" height="18" viewBox="0 0 22 18" fill="none" xmlns="http://www.w3.org/2000/svg">
<path d="M18.7 13.5V2.25L22 2.25V13.5H18.7ZM11 0L5.5 0C5.5 0 0 0 0 4.5L0 11.25C0 13.2413 1.1 14.355 2.277 14.9737C2.45445 13.9323 2.9851 12.9881 3.77572 12.3071C4.56633 11.626 5.56633 11.2518 6.6 11.25H9.9V13.5H6.6C6.01652 13.5 5.45694 13.7371 5.04436 14.159C4.63178 14.581 4.4 15.1533 4.4 15.75C4.4 16.3467 4.63178 16.919 5.04436 17.341C5.45694 17.7629 6.01652 18 6.6 18H12.1C16.5 18 16.5 13.5 16.5 13.5V2.25C16.5 2.25 15.4 0 11 0Z" fill="white"/>
</svg>
