<svg width="23" height="27" viewBox="0 0 23 27" fill="none" xmlns="http://www.w3.org/2000/svg">
<path d="M21.9823 0.860321H20.5846C20.338 0.860321 20.1188 1.07956 20.1188 1.32619V2.39496H17.488C17.2961 2.09351 16.9947 1.87428 16.611 1.87428C16.2 1.84687 15.8437 2.06611 15.6519 2.39496H13.9528C14.1994 2.75122 14.3913 3.16228 14.4735 3.60075H15.46C15.4052 4.72432 15.2956 5.90271 15.2134 6.36858C14.8297 6.64262 13.4047 6.99888 12.1715 6.99888H10.5273C9.29408 6.99888 7.86906 6.64262 7.4854 6.36858C7.40319 5.90271 7.29357 4.72432 7.23876 3.60075H8.36234C8.44455 3.16228 8.63638 2.75122 8.88302 2.39496H7.01953C6.8277 2.06611 6.47144 1.84687 6.06038 1.87428C5.70412 1.87428 5.37527 2.09351 5.21084 2.39496H2.71706V1.32619C2.71706 1.07956 2.49782 0.860321 2.25119 0.860321H0.853568C0.606929 0.860321 0.387695 1.07956 0.387695 1.32619V26.4285C0.387695 26.6751 0.606929 26.8944 0.853568 26.8944H2.25119C2.49782 26.8944 2.71706 26.6751 2.71706 26.4285V3.60075H5.07382C5.12863 4.66951 5.23825 6.42339 5.45748 7.10849C5.81374 8.25947 7.4854 8.75275 8.8008 8.97198L8.99263 13.5211L7.54021 21.3039C7.40319 21.989 7.86906 22.6467 8.55416 22.7837C8.63638 22.8111 8.71859 22.8111 8.7734 22.8111C9.37629 22.8111 9.89697 22.4001 10.0066 21.7698L11.3768 14.3158L12.747 21.7698C12.884 22.4549 13.5417 22.9208 14.2268 22.7837C14.912 22.6467 15.3504 21.989 15.2408 21.3039L13.7884 13.5211L13.9802 8.94458C15.2956 8.72534 16.8577 8.23207 17.2139 7.08109C17.4057 6.39598 17.5428 4.64211 17.5976 3.57334H20.0914V26.4011C20.0914 26.6477 20.3106 26.867 20.5572 26.867H21.9548C22.2015 26.867 22.4207 26.6477 22.4207 26.4011V1.32619C22.4481 1.07956 22.2289 0.860321 21.9823 0.860321Z" fill="white"/>
<path d="M11.4042 6.39599C12.615 6.39599 13.5965 5.41444 13.5965 4.20365C13.5965 2.99285 12.615 2.01131 11.4042 2.01131C10.1934 2.01131 9.21185 2.99285 9.21185 4.20365C9.21185 5.41444 10.1934 6.39599 11.4042 6.39599Z" fill="white"/>
</svg>
