<svg width="28" height="24" viewBox="0 0 28 24" fill="none" xmlns="http://www.w3.org/2000/svg">
<path d="M5.77382 13.3644C2.9622 13.3644 0.661774 15.6648 0.661774 18.4764C0.661774 21.288 2.9622 23.5885 5.77382 23.5885C8.58545 23.5885 10.8859 21.288 10.8859 18.4764C10.8575 15.6648 8.58545 13.3644 5.77382 13.3644ZM5.77382 21.7992C3.9278 21.7992 2.45099 20.294 2.45099 18.4764C2.45099 16.6588 3.9278 15.1536 5.77382 15.1536C7.61984 15.1536 9.09665 16.6304 9.09665 18.4764C9.09665 20.294 7.59144 21.7992 5.77382 21.7992Z" fill="white"/>
<path d="M22.53 13.3644C19.7184 13.3644 17.418 15.6648 17.418 18.4764C17.418 21.288 19.7184 23.5885 22.53 23.5885C25.3416 23.5885 27.6421 21.288 27.6421 18.4764C27.6421 15.6648 25.3416 13.3644 22.53 13.3644ZM22.53 21.7992C20.7124 21.7992 19.2072 20.3224 19.2072 18.4764C19.2072 16.6588 20.684 15.1536 22.53 15.1536C24.376 15.1536 25.8528 16.6304 25.8528 18.4764C25.8528 20.294 24.376 21.7992 22.53 21.7992Z" fill="white"/>
<path d="M19.1285 3.54135C19.2612 2.34097 18.3957 1.26027 17.1953 1.12754C15.995 0.994808 14.9143 1.86031 14.7815 3.06069C14.6488 4.26107 15.5143 5.34177 16.7147 5.4745C17.9151 5.60723 18.9958 4.74173 19.1285 3.54135Z" fill="white"/>
<path d="M15.6854 10.4675C15.8558 10.8936 16.2818 11.1776 16.7362 11.1776H19.2922C19.917 11.1776 20.4282 10.6663 20.4282 10.0415C20.4282 9.41674 19.917 8.90553 19.2922 8.90553H17.503L16.793 7.17311C16.5942 6.66191 16.1398 6.20751 15.7422 5.9235C15.3446 5.6395 15.0038 5.3839 15.0038 5.3839C14.095 4.75909 12.8453 4.95789 12.1921 5.8383L10.1189 8.59313L9.26691 9.70074C8.67051 10.4959 8.78411 11.6036 9.52251 12.2568L13.1577 15.3524L12.7317 19.6976C12.6749 20.3224 13.0441 20.9472 13.6406 21.1176C14.4074 21.3449 15.1742 20.8052 15.2878 20.0384L15.9978 14.4436C16.0262 14.1312 15.941 13.7904 15.7138 13.5632L13.2714 11.064L15.0322 8.76353L15.6854 10.4675Z" fill="white"/>
</svg>
