<svg width="23" height="23" viewBox="0 0 23 23" fill="none" xmlns="http://www.w3.org/2000/svg">
<path d="M6.46438 3.59375C6.03342 3.59375 5.74611 4.025 5.74611 4.3125V7.90625H4.30958V4.3125C4.30958 3.88125 4.02228 3.59375 3.59132 3.59375C3.16036 3.59375 2.87306 4.025 2.87306 4.3125V7.90625H1.43653V4.3125C1.43653 3.88125 1.14922 3.59375 0.718264 3.59375C0.287306 3.59375 0 4.025 0 4.3125V9.05625C0 10.35 1.00557 11.3562 2.15479 11.5V21.5625C2.15479 22.425 2.7294 23 3.59132 23C4.45324 23 5.02785 22.425 5.02785 21.5625V11.5C6.17707 11.3562 7.18264 10.35 7.18264 9.05625V4.3125C7.18264 4.025 6.89533 3.59375 6.46438 3.59375ZM9.33743 4.3125V12.9375H10.774V21.5625C10.774 22.425 11.3486 23 12.2105 23C13.0724 23 13.647 22.425 13.647 21.5625V0C11.2049 0 9.33743 1.86875 9.33743 4.3125ZM19.3931 2.875C17.382 2.875 15.8018 5.03125 15.8018 7.61875C15.6582 9.34375 16.5201 10.925 17.9566 11.9313V21.5625C17.9566 22.425 18.5312 23 19.3931 23C20.255 23 20.8297 22.425 20.8297 21.5625V11.9313C22.2662 10.925 23.1281 9.34375 22.9844 7.61875C22.9844 5.03125 21.4043 2.875 19.3931 2.875Z" fill="white"/>
</svg>
