<svg width="31" height="15" viewBox="0 0 31 15" fill="none" xmlns="http://www.w3.org/2000/svg">
<path d="M0.879753 8.56077H1.41898C1.45268 8.56077 1.48638 8.59447 1.48638 8.62817V11.2232C1.48638 11.5602 1.756 11.7961 2.05932 11.7961H3.7444C4.08142 11.7961 4.31733 11.5265 4.31733 11.2232V3.5392C4.31733 3.20218 4.04772 2.96627 3.7444 2.96627H2.05932C1.7223 2.96627 1.48638 3.23588 1.48638 3.5392V6.13424C1.48638 6.16794 1.45268 6.20164 1.41898 6.20164H0.879753C0.677542 6.20164 0.509033 6.37015 0.509033 6.57236V8.22375C0.509033 8.39226 0.677542 8.56077 0.879753 8.56077Z" fill="white"/>
<path d="M30.4699 6.20164H29.9306C29.8969 6.20164 29.8632 6.16794 29.8632 6.13424V3.5392C29.8632 3.20218 29.5936 2.96627 29.2903 2.96627H27.6052C27.2682 2.96627 27.0323 3.23588 27.0323 3.5392V11.1895C27.0323 11.5265 27.3019 11.7624 27.6052 11.7624H29.2903C29.6273 11.7624 29.8632 11.4928 29.8632 11.1895V8.59447C29.8632 8.56076 29.8969 8.52706 29.9306 8.52706H30.4699C30.6721 8.52706 30.8406 8.35855 30.8406 8.15634V6.50496C30.8406 6.37015 30.6721 6.20164 30.4699 6.20164Z" fill="white"/>
<path d="M25.9877 13.7508V1.01157C25.9877 0.607144 25.6507 0.270126 25.2462 0.270126H22.1457C21.7412 0.270126 21.4042 0.607144 21.4042 1.01157V5.99943H17.4611H9.94563V1.01157C9.94563 0.607144 9.60861 0.270126 9.20419 0.270126H6.10362C5.6992 0.270126 5.36218 0.607144 5.36218 1.01157V13.7845C5.36218 14.189 5.6992 14.526 6.10362 14.526H9.20419C9.60861 14.526 9.94563 14.189 9.94563 13.7845V8.79668H13.8887H21.4042V13.7845C21.4042 14.189 21.7412 14.526 22.1457 14.526H25.2462C25.6844 14.4923 25.9877 14.1553 25.9877 13.7508Z" fill="white"/>
</svg>
