<svg width="22" height="25" viewBox="0 0 22 25" fill="none" xmlns="http://www.w3.org/2000/svg">
<path d="M12.6704 5.37652L13.9671 6.14907C14.8224 6.6457 15.4846 7.39066 15.8985 8.27356L16.7538 10.1497L19.4025 7.94247C19.8992 7.52861 20.6165 7.58379 21.058 8.05284C21.4994 8.54947 21.4443 9.32202 20.9476 9.76347L17.6643 12.5226C16.9745 13.102 15.9261 12.9916 15.3743 12.2742L13.6636 10.0118L11.3184 13.5434L13.9947 15.5575C14.8776 16.2197 15.1811 17.3785 14.7673 18.3718L12.7255 23.1174C12.3945 23.8624 11.5115 24.1659 10.7942 23.8072C10.1596 23.4761 9.88369 22.676 10.1596 22.0138L11.9806 17.9855L7.86955 15.0609C6.62797 14.178 6.29688 12.495 7.06942 11.1982L9.44223 7.30788L6.04856 7.97006L3.48261 10.2601C2.87561 10.6188 2.10307 10.4257 1.71679 9.81865C1.30293 9.18406 1.52366 8.32875 2.18584 7.97006L5.05529 5.59725C5.22083 5.51448 5.38638 5.43171 5.55192 5.40411L9.05596 4.8523C10.2975 4.5488 11.5943 4.71434 12.6704 5.37652Z" fill="white"/>
<path d="M6.95913 15.254L9.60785 16.9647L8.89049 19.9445C8.69736 20.6618 8.20072 21.2688 7.53854 21.5999L2.40664 24.0831C1.77205 24.3866 0.99951 24.1107 0.66842 23.4761C0.36492 22.8415 0.613238 22.069 1.24783 21.7655L6.07623 19.2823L6.95913 15.254Z" fill="white"/>
<path d="M14.9053 5.32134C16.3224 5.32134 17.4713 4.17252 17.4713 2.75539C17.4713 1.33825 16.3224 0.189438 14.9053 0.189438C13.4882 0.189438 12.3394 1.33825 12.3394 2.75539C12.3394 4.17252 13.4882 5.32134 14.9053 5.32134Z" fill="white"/>
</svg>
