<svg width="31" height="15" viewBox="0 0 31 15" fill="none" xmlns="http://www.w3.org/2000/svg">
<path d="M23.6785 10.1546C19.2458 9.89487 17.1388 10.6203 15.237 11.2494C13.3356 11.8789 12.3638 12.5354 9.34043 12.5762C3.51206 12.5899 0.310547 9.77151 0.310547 9.77151C2.65025 12.7273 4.40094 13.671 6.42641 14.3276C8.45122 14.9845 11.037 15.0119 13.0484 14.4917C15.0595 13.9719 17.2899 12.7133 21.5173 12.2205C25.7448 11.7278 30.3968 12.5762 30.3968 12.5762C30.3968 12.5762 28.1116 10.4147 23.6785 10.1546Z" fill="white"/>
<path d="M23.7608 7.6237C25.6196 7.6237 27.1265 6.11685 27.1265 4.25805C27.1265 2.39925 25.6196 0.892403 23.7608 0.892403C21.902 0.892403 20.3952 2.39925 20.3952 4.25805C20.3952 6.11685 21.902 7.6237 23.7608 7.6237Z" fill="white"/>
<path d="M6.90047 5.94388L6.90248 5.94723L6.94259 5.9265C6.9446 5.9255 6.9466 5.92516 6.94861 5.92382C6.94995 5.92315 6.95128 5.92182 6.95295 5.92148L12.215 3.22877L13.9788 6.22803L7.00677 10.764C7.71012 10.8683 8.4703 10.9345 9.29868 10.9345H9.33645C11.4124 10.9064 12.3073 10.5728 13.5455 10.1112C13.9099 9.9751 14.287 9.8347 14.7212 9.69062L14.8105 9.6612C16.1172 9.22863 17.5607 8.75226 19.7289 8.55403L15.0732 2.19213L14.2325 0.983329L14.2322 0.982994L14.2245 0.971963L14.2238 0.972297C13.9427 0.564795 13.474 0.297028 12.9418 0.297028C12.6981 0.297028 12.4708 0.358203 12.2655 0.457822L12.2612 0.453476L5.78293 3.84754L5.79129 3.86325C5.25475 4.18384 5.05317 4.86947 5.34835 5.42907C5.64487 5.99202 6.33017 6.21299 6.90047 5.94388Z" fill="white"/>
</svg>
