<svg width="20" height="24" viewBox="0 0 20 24" fill="none" xmlns="http://www.w3.org/2000/svg">
<path fill-rule="evenodd" clip-rule="evenodd" d="M12.0155 8.41329H7.0688C6.99028 8.41329 5.81251 8.88218 4.94881 12.0081L0.394743 16.0717C0.394743 16.0717 -0.547477 18.2598 1.88659 17.9472L6.44065 14.4306L6.51917 15.7591C4.94881 17.3221 -0.625995 21.6983 3.45696 23.1831H12.0155C12.408 23.1831 14.6851 21.1513 12.094 19.5102H8.24658C8.24658 19.5102 8.08954 18.6506 9.1888 18.6506C10.2881 18.5724 12.408 18.6506 12.408 18.6506C12.408 18.6506 15.5488 20.2916 13.5073 23.1831H15.6273C19.6317 21.7764 13.9784 17.2439 12.4866 15.681V14.4306L17.0406 17.6346C17.5117 17.9472 19.7888 18.1817 19.0036 15.9936L14.371 12.0081C14.371 12.0081 13.2717 8.33515 12.0155 8.41329Z" fill="white"/>
<path fill-rule="evenodd" clip-rule="evenodd" d="M9.59137 7.29727C11.3324 7.29727 12.7568 5.87281 12.7568 4.13181C12.7568 2.31167 11.3324 0.887207 9.59137 0.887207C7.77123 0.887207 6.34677 2.31167 6.34677 4.13181C6.34677 5.87281 7.77123 7.29727 9.59137 7.29727Z" fill="white"/>
</svg>
