<svg width="315" height="88" viewBox="0 0 315 88" fill="none" xmlns="http://www.w3.org/2000/svg">
<path d="M107.132 25.9469C104.184 24.5328 100.165 23.8229 95.067 23.8229C86.9758 23.8229 80.2845 25.8671 74.9931 29.9526C69.7016 34.0381 66.4002 39.8028 65.0859 47.2467L58.175 86.4422H72.0109L78.2176 51.2495C79.9852 41.2197 85.6045 36.202 95.0698 36.202C97.6585 36.202 99.9136 36.4871 101.838 37.0516C103.76 37.6189 105.35 38.2262 106.613 38.8734C107.158 38.5512 107.925 37.7415 108.923 36.4472C109.918 35.1528 110.539 33.8185 110.782 32.4415C111.295 29.5278 110.077 27.3639 107.132 25.9469Z" fill="white"/>
<path d="M128.301 23.7403C125.955 23.7403 124.044 24.2477 122.573 25.257C121.099 26.2691 120.164 27.9084 119.765 30.1721L109.268 86.4422H123.104L134.502 25.0745C134.123 24.9149 133.364 24.6497 132.213 24.2848C131.061 23.9227 129.758 23.7403 128.301 23.7403Z" fill="white"/>
<path d="M137.259 2.4262C135.925 0.809686 134.086 0 131.739 0C129.393 0 127.266 0.809686 125.364 2.4262C123.46 4.04557 122.302 6.02701 121.889 8.37338C121.476 10.7197 121.935 12.7012 123.266 14.3206C124.598 15.9399 126.436 16.7468 128.786 16.7468C131.132 16.7468 133.256 15.9399 135.16 14.3206C137.062 12.7041 138.22 10.7226 138.636 8.37338C139.049 6.02701 138.59 4.04557 137.259 2.4262Z" fill="#0BD8A7"/>
<path d="M238.937 29.6475C236.933 27.706 234.398 26.2491 231.333 25.2769C228.268 24.3076 224.873 23.8201 221.155 23.8201C216.22 23.8201 211.647 24.7524 207.436 26.6112C203.225 28.4729 199.624 31.2241 196.637 34.8648C194.932 31.2241 192.26 28.4758 188.625 26.6112C184.987 24.7524 180.662 23.8201 175.647 23.8201C171.844 23.8201 168.235 24.3275 164.822 25.3368C161.407 26.3489 158.333 27.8229 155.608 29.7673C152.877 31.7088 150.57 34.135 148.683 37.0458C146.793 39.9596 145.507 43.358 144.822 47.241L137.912 86.4365H151.748L157.826 51.9737C158.809 46.3914 160.811 42.3858 163.827 39.9596C166.844 37.5334 170.456 36.3188 174.661 36.3188C178.786 36.3188 182.011 37.656 184.332 40.3245C186.652 42.993 187.285 47.3237 186.23 53.3108L180.389 86.4394H194.225L200.066 53.3108C201.121 47.3237 203.279 42.9959 206.541 40.3245C209.805 37.656 213.497 36.3188 217.623 36.3188C221.911 36.3188 225.098 37.5134 227.185 39.8997C229.269 42.286 229.822 46.2717 228.839 51.8539L222.74 86.4394H236.576L243.51 47.1213C244.194 43.2382 244.106 39.8398 243.245 36.929C242.372 34.0181 240.941 31.589 238.937 29.6475Z" fill="white"/>
<path d="M314.354 36.0936C313.647 33.6674 312.344 31.5434 310.443 29.7217C308.538 27.9027 306.063 26.4459 303.021 25.3511C299.977 24.2592 296.353 23.7118 292.145 23.7118C287.369 23.7118 282.842 24.5015 278.56 26.0781C274.278 27.6547 270.406 29.8813 266.948 32.7523C263.487 35.6261 260.576 39.0615 258.212 43.0672C255.846 47.0728 254.238 51.5004 253.383 56.3557C252.485 61.4533 252.308 66.032 253.545 69.8865C262.768 98.6189 301.949 83.4772 305.513 80.8058L302.3 72.1302C301.773 72.3726 300.96 72.7375 299.863 73.2222C298.765 73.7068 297.465 74.1944 295.965 74.679C294.463 75.1637 292.792 75.5714 290.959 75.8936C289.12 76.2186 287.15 76.3811 285.049 76.3811C278.819 76.3811 274.249 75.1067 271.344 72.5579C268.436 70.0091 267.022 66.6706 267.102 62.5452C268.704 62.6279 270.212 62.6877 271.621 62.7277C273.029 62.7704 274.543 62.7875 276.162 62.7875C283.119 62.7875 288.943 62.3228 293.642 61.3934C298.334 60.464 302.163 59.1696 305.125 57.5103C308.088 55.8539 310.297 53.8696 311.757 51.5631C313.214 49.2567 314.195 46.6908 314.693 43.8569C315.17 41.1142 315.058 38.5227 314.354 36.0936ZM301.257 43.6174C301.043 44.8319 300.592 46.0066 299.908 47.1384C299.221 48.2731 298.032 49.2824 296.339 50.1719C294.642 51.0642 292.37 51.7912 289.522 52.3557C286.671 52.9231 283.022 53.2053 278.571 53.2053C276.872 53.2053 275.173 53.2053 273.474 53.2053C271.775 53.2053 270.001 53.1654 268.154 53.0856C268.647 50.7392 269.519 48.4356 270.771 46.1691C272.02 43.9054 273.565 41.904 275.41 40.162C277.251 38.4229 279.401 37.0288 281.85 35.9767C284.299 34.9247 287.022 34.4001 290.015 34.4001C293.656 34.4001 296.573 35.1699 298.771 36.7066C300.972 38.2404 301.798 40.5469 301.257 43.6174Z" fill="white"/>
<path d="M69.5106 13.7475C74.286 13.7475 77.4962 11.5636 79.1469 7.19592C79.7285 5.65923 80.0136 4.26509 80.0022 3.00781C79.9908 1.75337 79.9395 0.926583 79.8511 0.51889H10.5577C5.78508 0.51889 2.57201 2.70275 0.921281 7.07333C0.339678 8.61002 0.0374703 10.007 0.00610928 11.2586C-0.0224007 12.513 0.0488742 13.3427 0.219934 13.7447H30.7997H31.8204L18.7429 86.4394H33.1832L46.2607 13.7447H69.5106V13.7475Z" fill="white"/>
</svg>
