<svg width="140" height="39" viewBox="0 0 140 39" fill="none" xmlns="http://www.w3.org/2000/svg">
<path d="M47.2828 11.4517C45.9818 10.8276 44.2076 10.5143 41.9578 10.5143C38.3867 10.5143 35.4336 11.4164 33.0982 13.2196C30.7628 15.0227 29.3057 17.567 28.7256 20.8523L25.6755 38.1513H31.782L34.5213 22.619C35.3014 18.1923 37.7815 15.9777 41.959 15.9777C43.1015 15.9777 44.0968 16.1036 44.9462 16.3527C45.7943 16.6031 46.4964 16.8711 47.0538 17.1568C47.2942 17.0146 47.6326 16.6572 48.073 16.0859C48.5122 15.5147 48.7865 14.9258 48.8934 14.3181C49.1199 13.0321 48.5826 12.077 47.2828 11.4517Z" fill="white"/>
<path d="M56.6256 10.4778C55.59 10.4778 54.747 10.7017 54.0977 11.1472C53.4472 11.5939 53.0345 12.3174 52.8583 13.3164L48.2253 38.1512H54.3317L59.3624 11.0666C59.195 10.9962 58.8603 10.8791 58.352 10.7181C57.8436 10.5583 57.2686 10.4778 56.6256 10.4778Z" fill="white"/>
<path d="M60.5791 1.0708C59.9902 0.357355 59.1787 0 58.1431 0C57.1075 0 56.1688 0.357355 55.3296 1.0708C54.489 1.78551 53.9782 2.66002 53.7957 3.69559C53.6133 4.73116 53.8158 5.60567 54.4035 6.32038C54.9911 7.03508 55.8027 7.39117 56.8395 7.39117C57.8751 7.39117 58.8125 7.03508 59.653 6.32038C60.4923 5.60693 61.0032 4.73241 61.1869 3.69559C61.3693 2.66002 61.1667 1.78551 60.5791 1.0708Z" fill="white"/>
<path d="M105.455 13.0849C104.57 12.228 103.451 11.585 102.099 11.156C100.746 10.7281 99.2475 10.513 97.6067 10.513C95.4286 10.513 93.4103 10.9244 91.5518 11.7448C89.6933 12.5665 88.1041 13.7807 86.7854 15.3876C86.033 13.7807 84.854 12.5678 83.2496 11.7448C81.6441 10.9244 79.7353 10.513 77.5219 10.513C75.8434 10.513 74.2504 10.7369 72.7442 11.1824C71.2368 11.6291 69.8804 12.2796 68.6774 13.1378C67.472 13.9947 66.454 15.0655 65.6211 16.3502C64.7868 17.6361 64.2193 19.136 63.9173 20.8498L60.8672 38.1487H66.9737L69.6564 22.9385C70.0905 20.4748 70.9738 18.7069 72.3051 17.6361C73.6363 16.5653 75.2306 16.0293 77.0866 16.0293C78.9073 16.0293 80.3304 16.6194 81.3547 17.7972C82.3789 18.9749 82.6582 20.8863 82.1927 23.5287L79.6145 38.15H85.7209L88.2992 23.5287C88.7647 20.8863 89.7172 18.9762 91.1567 17.7972C92.5975 16.6194 94.2269 16.0293 96.0477 16.0293C97.9401 16.0293 99.3469 16.5565 100.268 17.6097C101.188 18.6629 101.432 20.422 100.998 22.8857L98.3063 38.15H104.413L107.473 20.7969C107.775 19.0832 107.736 17.5833 107.356 16.2986C106.971 15.0139 106.339 13.9418 105.455 13.0849Z" fill="white"/>
<path d="M138.74 15.9299C138.428 14.8591 137.853 13.9217 137.014 13.1176C136.173 12.3149 135.081 11.6719 133.738 11.1887C132.395 10.7068 130.795 10.4652 128.938 10.4652C126.83 10.4652 124.832 10.8137 122.942 11.5096C121.052 12.2054 119.344 13.1881 117.817 14.4552C116.29 15.7236 115.005 17.2398 113.962 19.0077C112.918 20.7756 112.208 22.7297 111.83 24.8726C111.434 27.1224 111.356 29.1432 111.902 30.8444C115.973 43.5254 133.265 36.8426 134.838 35.6636L133.42 31.8347C133.187 31.9416 132.829 32.1027 132.344 32.3166C131.86 32.5305 131.286 32.7457 130.624 32.9596C129.961 33.1735 129.224 33.3534 128.415 33.4956C127.603 33.639 126.734 33.7108 125.806 33.7108C123.057 33.7108 121.04 33.1483 119.758 32.0234C118.474 30.8985 117.85 29.425 117.885 27.6043C118.592 27.6408 119.258 27.6672 119.88 27.6848C120.501 27.7037 121.169 27.7113 121.884 27.7113C124.954 27.7113 127.525 27.5062 129.599 27.096C131.67 26.6857 133.36 26.1145 134.667 25.3822C135.974 24.6511 136.95 23.7753 137.594 22.7574C138.237 21.7394 138.67 20.607 138.89 19.3562C139.1 18.1458 139.051 17.002 138.74 15.9299ZM132.96 19.2505C132.865 19.7866 132.666 20.305 132.364 20.8045C132.061 21.3053 131.536 21.7508 130.789 22.1433C130.04 22.5372 129.037 22.858 127.78 23.1072C126.522 23.3576 124.912 23.4821 122.947 23.4821C122.197 23.4821 121.447 23.4821 120.698 23.4821C119.948 23.4821 119.165 23.4645 118.35 23.4293C118.567 22.3937 118.952 21.377 119.505 20.3767C120.056 19.3776 120.738 18.4943 121.552 17.7255C122.365 16.9579 123.313 16.3426 124.394 15.8783C125.475 15.414 126.677 15.1825 127.998 15.1825C129.605 15.1825 130.892 15.5222 131.862 16.2004C132.834 16.8774 133.199 17.8954 132.96 19.2505Z" fill="white"/>
<path d="M30.6785 6.06746C32.7861 6.06746 34.2029 5.1036 34.9315 3.17591C35.1882 2.49769 35.314 1.88239 35.309 1.32749C35.3039 0.77384 35.2813 0.408939 35.2423 0.229004H4.65962C2.55324 0.229004 1.13516 1.19285 0.406607 3.1218C0.149917 3.80002 0.0165375 4.41658 0.00269633 4.96897C-0.00988654 5.52261 0.0215706 5.88878 0.0970678 6.0662H13.5935H14.0439L8.27216 38.15H14.6454L20.4171 6.0662H30.6785V6.06746Z" fill="white"/>
</svg>
