<svg width="30" height="28" viewBox="0 0 30 28" fill="none" xmlns="http://www.w3.org/2000/svg">
<path d="M29.3779 13.7752L16.5917 1.14624L15.7347 0.299293C15.5394 0.107591 15.2753 0 15.0001 0C14.7248 0 14.4607 0.107591 14.2655 0.299293L0.622239 13.7752C0.422144 13.9722 0.264006 14.2068 0.157159 14.4651C0.0503114 14.7235 -0.00307949 15.0004 0.000137159 15.2795C0.0133734 16.4305 0.982925 17.3494 2.14771 17.3494H3.55406V28H26.4461V17.3494H27.8822C28.448 17.3494 28.9808 17.1303 29.3812 16.7346C29.5783 16.5404 29.7346 16.3095 29.8408 16.0552C29.947 15.801 30.0011 15.5284 30 15.2533C30 14.6974 29.7783 14.1709 29.3779 13.7752ZM16.8531 25.6456H13.147V18.9746H16.8531V25.6456ZM24.0635 14.995V25.6456H18.9709V18.1898C18.9709 17.4671 18.3786 16.8818 17.6473 16.8818H12.3528C11.6215 16.8818 11.0292 17.4671 11.0292 18.1898V25.6456H5.93657V14.995H2.75988L15.0034 2.90553L15.7678 3.66092L27.2435 14.995H24.0635Z" fill="#0BD8A7"/>
</svg>
