<svg width="28" height="26" viewBox="0 0 28 26" fill="none" xmlns="http://www.w3.org/2000/svg">
<path d="M20.0114 16.3522H18.7467L18.2985 15.9508C19.8674 14.2561 20.8119 12.056 20.8119 9.66266C20.8119 4.3259 16.1532 0 10.4059 0C4.65866 0 0 4.3259 0 9.66266C0 14.9994 4.65866 19.3253 10.4059 19.3253C12.9834 19.3253 15.3528 18.4483 17.1778 16.9914L17.6101 17.4077V18.582L25.6146 26L28 23.785L20.0114 16.3522ZM10.4059 16.3522C6.41967 16.3522 3.20183 13.3642 3.20183 9.66266C3.20183 5.96112 6.41967 2.97313 10.4059 2.97313C14.3922 2.97313 17.6101 5.96112 17.6101 9.66266C17.6101 13.3642 14.3922 16.3522 10.4059 16.3522Z" fill="white"/>
</svg>
